<svg width="257" height="96" viewBox="0 0 257 96" fill="none" xmlns="http://www.w3.org/2000/svg">
<path d="M87.5 74.8613C87.5 62.8481 84.7925 53.25 79.4544 46.3125C73.0081 37.9369 62.8269 33.4181 49.1619 32.8594V13.5L9.5 47.25L49.1619 81V61.7531C57.4587 61.9762 63.7231 63.1744 68.7125 65.4731C74.1031 67.9575 78.0125 71.67 82.2275 76.4794L87.5 82.5V74.8613Z" fill="#053688"/>
<path d="M169.5 74.8613C169.5 62.8481 172.208 53.25 177.546 46.3125C183.992 37.9369 194.173 33.4181 207.838 32.8594V13.5L247.5 47.25L207.838 81V61.7531C199.541 61.9762 193.277 63.1744 188.287 65.4731C182.897 67.9575 178.988 71.67 174.773 76.4794L169.5 82.5V74.8613Z" fill="#7390D5"/>
</svg>
