<svg width="298" height="297" viewBox="0 0 298 297" fill="none" xmlns="http://www.w3.org/2000/svg">
<path d="M258.814 142.311C262.37 131.591 264.301 120.131 264.301 108.218C264.301 48.4505 215.85 0 156.083 0C96.3157 0 47.8652 48.451 47.8652 108.218C47.8652 120.131 49.7958 131.591 53.3516 142.311H258.815H258.814Z" fill="#EFF5FF"/>
<path d="M268.642 142.404H98.676C98.625 142.404 98.584 142.363 98.584 142.312C98.584 142.261 98.625 142.22 98.676 142.22H268.642C268.693 142.22 268.734 142.261 268.734 142.312C268.734 142.363 268.693 142.404 268.642 142.404Z" fill="black"/>
<path d="M122.044 171.559H113.295C113.244 171.559 113.203 171.518 113.203 171.467C113.203 171.416 113.244 171.375 113.295 171.375H122.044C122.095 171.375 122.136 171.416 122.136 171.467C122.136 171.518 122.095 171.559 122.044 171.559Z" fill="black"/>
<path d="M104.804 152.233H83.2834C83.2324 152.233 83.1914 152.192 83.1914 152.141C83.1914 152.09 83.2324 152.049 83.2834 152.049H104.804C104.855 152.049 104.896 152.09 104.896 152.141C104.896 152.192 104.855 152.233 104.804 152.233Z" fill="black"/>
<path d="M64.9721 167.203H57.7854C57.7344 167.203 57.6934 167.162 57.6934 167.111C57.6934 167.06 57.7344 167.019 57.7854 167.019H64.9721C65.023 167.019 65.0641 167.06 65.0641 167.111C65.0641 167.162 65.023 167.203 64.9721 167.203Z" fill="black"/>
<path d="M92.6899 142.404H42.7307C42.6797 142.404 42.6387 142.363 42.6387 142.312C42.6387 142.261 42.6797 142.22 42.7307 142.22H92.6899C92.7409 142.22 92.7819 142.261 92.7819 142.312C92.7819 142.363 92.7409 142.404 92.6899 142.404Z" fill="black"/>
<path d="M274.638 287.903H252.258C252.258 287.903 258.001 285.366 268.399 285.366C278.796 285.366 274.638 287.903 274.638 287.903Z" fill="#A8B9F5"/>
<path d="M263.529 268.882L267.559 286.847C267.698 287.465 268.246 287.903 268.879 287.903H281.363C282 287.903 282.55 287.459 282.685 286.837L286.568 268.882H263.529Z" fill="#0F794D"/>
<path d="M286.568 268.881C286.568 269.549 281.411 270.091 275.049 270.091C268.686 270.091 263.529 269.549 263.529 268.881C263.529 268.214 268.686 267.671 275.049 267.671C281.411 267.671 286.568 268.213 286.568 268.881Z" fill="#E05E2B"/>
<path d="M277.033 260.327C281.55 261.605 287.617 260.439 289.166 257.021C290.714 253.603 289.166 247.533 293.167 244.953C293.167 244.953 283.099 250.918 277.033 260.327Z" fill="#AA9601"/>
<path d="M282.648 250.504C282.333 250.782 281.843 250.547 281.862 250.127C281.995 247.004 282.459 239.521 286.455 233.32C291.102 226.111 296.652 222.11 297.555 223.142C298.459 224.175 295.361 231.434 294.328 235.097C293.296 238.76 290.069 245.342 286.971 247.279C285.052 248.478 283.529 249.727 282.648 250.504Z" fill="#887D0A"/>
<path d="M289.867 254.173C290.587 250.956 295.559 246.211 297.72 246.229C297.72 246.229 294.777 242.949 292.004 245.694C289.232 248.44 289.868 254.174 289.868 254.174L289.867 254.173Z" fill="#897E00"/>
<path d="M272.695 260.471C272.695 260.471 269.483 254.216 264.74 250.624C259.996 247.033 253.898 240.373 251.671 235.243C249.445 230.112 245.024 226.66 245.024 226.66C243.862 227.014 245.799 233.047 247.347 233.839C248.897 234.629 251.994 240.178 254.317 248.31C256.64 256.443 264.772 259.824 268.515 260.327C269.852 260.507 270.843 260.68 271.565 260.828C272.005 260.918 272.417 260.76 272.696 260.471H272.695Z" fill="#AA9601"/>
<path d="M251.672 235.243C253.898 240.373 259.997 247.033 264.74 250.625C269.483 254.216 272.696 260.471 272.696 260.471C272.953 260.203 273.098 259.823 273.034 259.412C272.389 255.286 270.405 245.338 265.676 240.025C259.61 233.21 253.157 231.532 251.608 229.854C250.059 228.177 246.187 226.306 245.025 226.661C245.025 226.661 249.446 230.112 251.673 235.243L251.672 235.243Z" fill="#897E00"/>
<path d="M278.777 234.564C278.583 226.433 280.712 216.269 279.874 210.938C279.358 212.042 278.196 218.392 276.002 223.8C273.808 229.208 271.484 237.727 272.388 244.309C273.068 249.269 274.482 252.981 275.027 255.255C275.078 255.468 275.202 255.626 275.356 255.735C276.485 252.801 278.97 242.696 278.777 234.564Z" fill="#AA9601"/>
<path d="M276.447 255.579C278.004 253.563 280.663 249.49 282.068 243.735C284.133 235.274 282.713 221.43 282.068 217.575C281.422 213.72 280.39 209.835 279.874 210.938C280.713 216.269 278.583 226.433 278.776 234.564C278.97 242.696 276.484 252.801 275.355 255.735C275.684 255.967 276.162 255.948 276.447 255.579L276.447 255.579Z" fill="#897E00"/>
<path d="M275.05 269.306C274.922 269.306 274.818 269.203 274.818 269.076C274.817 268.509 274.814 255.164 276.485 251.031C276.533 250.912 276.668 250.856 276.786 250.903C276.904 250.951 276.962 251.086 276.914 251.205C275.277 255.254 275.28 268.937 275.281 269.075C275.281 269.202 275.178 269.306 275.05 269.306Z" fill="black"/>
<path d="M275.151 264.078C275.117 264.078 275.083 264.071 275.051 264.055C274.935 263.999 274.888 263.861 274.943 263.746C274.953 263.727 275.895 261.797 278.573 257.735C278.642 257.628 278.785 257.599 278.892 257.669C278.999 257.739 279.028 257.883 278.958 257.989C276.301 262.02 275.368 263.929 275.359 263.947C275.319 264.03 275.237 264.077 275.151 264.077V264.078Z" fill="black"/>
<path d="M275.05 265.627C274.946 265.627 274.851 265.557 274.825 265.451C274.098 262.454 269.951 256.475 266.417 252.372C266.334 252.275 266.345 252.129 266.442 252.046C266.539 251.964 266.684 251.973 266.767 252.071C269.727 255.506 274.434 261.877 275.274 265.342C275.304 265.466 275.228 265.591 275.104 265.622C275.086 265.626 275.068 265.627 275.05 265.627Z" fill="black"/>
<path d="M275.401 259.396C275.356 259.396 275.31 259.383 275.27 259.355C275.165 259.283 275.138 259.139 275.211 259.033C275.295 258.911 283.725 246.672 288.055 238.011C288.113 237.897 288.252 237.852 288.366 237.907C288.48 237.965 288.526 238.104 288.469 238.218C284.123 246.908 275.676 259.174 275.591 259.296C275.546 259.362 275.475 259.396 275.401 259.396Z" fill="black"/>
<path d="M277.256 248.871C277.237 248.871 277.216 248.869 277.196 248.863C277.072 248.829 277 248.702 277.034 248.579C278.065 244.796 278.262 239.506 278.453 234.39C278.556 231.635 278.653 229.032 278.873 226.67C279.5 219.921 279.804 215.554 279.806 215.511C279.815 215.384 279.921 215.281 280.052 215.296C280.18 215.305 280.276 215.415 280.267 215.543C280.264 215.586 279.96 219.958 279.332 226.712C279.114 229.062 279.017 231.658 278.914 234.406C278.722 239.549 278.524 244.866 277.478 248.7C277.45 248.803 277.358 248.87 277.255 248.87L277.256 248.871Z" fill="black"/>
<path d="M264.741 250.855C264.674 250.855 264.607 250.827 264.562 250.77C261.876 247.488 259.694 245.505 257.94 243.912C255.818 241.983 254.141 240.46 252.68 237.688C250.068 232.73 248.15 230.109 248.131 230.084C248.055 229.981 248.077 229.836 248.18 229.76C248.282 229.684 248.427 229.706 248.503 229.809C248.523 229.836 250.458 232.48 253.089 237.473C254.511 240.173 256.08 241.598 258.251 243.57C260.016 245.173 262.212 247.168 264.919 250.478C264.999 250.576 264.985 250.722 264.886 250.803C264.843 250.838 264.791 250.855 264.74 250.855L264.741 250.855Z" fill="black"/>
<path d="M289.792 236.101C289.757 236.101 289.722 236.094 289.689 236.077C289.575 236.02 289.528 235.882 289.585 235.767C289.76 235.415 293.903 227.114 296.091 224.54C296.173 224.444 296.319 224.431 296.417 224.514C296.513 224.597 296.525 224.742 296.443 224.84C294.291 227.37 290.041 235.887 289.998 235.972C289.958 236.054 289.876 236.1 289.792 236.1V236.101Z" fill="black"/>
<path d="M280.365 256.119C280.313 256.119 280.261 256.101 280.219 256.066C280.121 255.985 280.106 255.839 280.187 255.741C283.739 251.419 290.158 246.691 290.223 246.644C290.324 246.568 290.47 246.59 290.546 246.694C290.621 246.797 290.599 246.942 290.496 247.017C290.432 247.064 284.059 251.758 280.545 256.035C280.499 256.09 280.434 256.119 280.367 256.119H280.365Z" fill="black"/>
<path d="M148.646 297C195.178 297 232.9 292.509 232.9 286.968C232.9 281.428 195.178 276.937 148.646 276.937C102.114 276.937 64.3926 281.428 64.3926 286.968C64.3926 292.509 102.114 297 148.646 297Z" fill="#A8B9F5"/>
<path d="M91.5961 290.123H215.627C218.583 290.123 220.98 287.726 220.98 284.769L220.98 43.663C220.98 40.7062 218.583 38.3092 215.627 38.3092L91.5961 38.3092C88.6393 38.3092 86.2423 40.7062 86.2423 43.663L86.2423 284.769C86.2423 287.726 88.6393 290.123 91.5961 290.123Z" fill="#0F794D"/>
<path d="M80.3714 290.123H204.402C207.359 290.123 209.756 287.726 209.756 284.769L209.756 43.663C209.756 40.7062 207.359 38.3092 204.402 38.3092L80.3714 38.3092C77.4146 38.3092 75.0176 40.7062 75.0176 43.663L75.0176 284.769C75.0176 287.726 77.4146 290.123 80.3714 290.123Z" fill="#0F794D"/>
<path d="M199.662 268.07H85.1132C82.4596 268.07 80.3056 265.915 80.3056 263.262L80.3056 52.5013C80.3056 49.8477 82.4602 47.6932 85.1138 47.6932L199.663 47.6932C202.316 47.6932 204.471 49.8477 204.471 52.5013L204.471 263.262C204.471 265.916 202.316 268.07 199.663 268.07L199.662 268.07Z" fill="#EBF2FF"/>
<path d="M213.155 89.6045H217.053V61.2289H213.155V89.6045Z" fill="#0F794D"/>
<path d="M213.155 125.932H217.053V97.5561H213.155V125.932Z" fill="#0F794D"/>
<path d="M131.73 44.04H153.012V41.5843H131.73V44.04Z" fill="#0F794D"/>
<path d="M154.766 42.8115C154.766 43.5383 155.354 44.127 156.081 44.127C156.808 44.127 157.397 43.5383 157.397 42.8115C157.397 42.0848 156.808 41.4961 156.081 41.4961C155.354 41.4961 154.766 42.0848 154.766 42.8115Z" fill="#0F794D"/>
<path d="M189.994 268.3H108.141C108.014 268.3 107.91 268.197 107.91 268.07C107.91 267.942 108.014 267.839 108.141 267.839H189.994C190.121 267.839 190.225 267.942 190.225 268.07C190.225 268.197 190.121 268.3 189.994 268.3Z" fill="black"/>
<path d="M204.469 255.332C204.342 255.332 204.238 255.229 204.238 255.101V58.0305C204.238 57.9032 204.342 57.7998 204.469 57.7998C204.596 57.7998 204.7 57.9032 204.7 58.0305V255.101C204.7 255.229 204.596 255.332 204.469 255.332Z" fill="black"/>
<path d="M209.756 281.837C209.629 281.837 209.525 281.733 209.525 281.606V154.072C209.525 153.944 209.629 153.841 209.756 153.841C209.883 153.841 209.987 153.944 209.987 154.072V281.606C209.987 281.733 209.883 281.837 209.756 281.837Z" fill="black"/>
<path d="M75.0172 239.741C74.8899 239.741 74.7871 239.637 74.7871 239.51V77.675C74.7871 77.5477 74.8899 77.4443 75.0172 77.4443C75.1445 77.4443 75.2473 77.5477 75.2473 77.675V239.51C75.2473 239.637 75.1445 239.741 75.0172 239.741Z" fill="black"/>
<path d="M110.791 283.396C110.732 283.396 110.673 283.374 110.628 283.329C110.538 283.239 110.538 283.093 110.628 283.003L119.66 273.96C119.75 273.87 119.896 273.87 119.986 273.96C120.076 274.049 120.076 274.196 119.986 274.286L110.953 283.329C110.909 283.374 110.85 283.396 110.791 283.396Z" fill="black"/>
<path d="M135.425 281.837C135.377 281.837 135.328 281.821 135.287 281.79C135.185 281.713 135.165 281.569 135.242 281.468L140.918 273.984C140.995 273.883 141.14 273.864 141.24 273.94C141.342 274.017 141.362 274.161 141.285 274.262L135.609 281.746C135.564 281.806 135.495 281.837 135.425 281.837Z" fill="black"/>
<path d="M200.283 43.0424H193.735C193.607 43.0424 193.504 42.9391 193.504 42.8118C193.504 42.6845 193.607 42.5811 193.735 42.5811H200.283C200.41 42.5811 200.514 42.6845 200.514 42.8118C200.514 42.9391 200.41 43.0424 200.283 43.0424Z" fill="black"/>
<path d="M215.628 290.353C215.501 290.353 215.398 290.251 215.397 290.123L214.873 152.642C214.873 152.516 214.976 152.412 215.103 152.411C215.23 152.411 215.333 152.514 215.334 152.641L215.858 290.122C215.858 290.249 215.755 290.353 215.628 290.353Z" fill="black"/>
<path d="M195.108 95.2148H89.6348V164.216H195.108V95.2148Z" fill="#7088D2" fill-opacity="0.25"/>
<path d="M161.81 133.076C164.51 121.64 157.428 110.179 145.991 107.48C134.554 104.78 123.094 111.862 120.395 123.299C117.695 134.736 124.777 146.196 136.214 148.896C147.651 151.595 159.111 144.513 161.81 133.076Z" fill="#DFE6FF"/>
<path d="M138.51 138.637L130.232 130.015L133.301 127.056L137.867 131.811L147.695 116.69L151.27 119.026L138.51 138.637Z" fill="#0F794D"/>
<path d="M141.101 169.974H89.6348V173.56H141.101V169.974Z" fill="#0F794D"/>
<path d="M141.101 87.8115H89.6348V91.3975H141.101V87.8115Z" fill="#0F794D"/>
<path d="M153.979 80.4082H89.6348V83.9941H153.979V80.4082Z" fill="#0F794D"/>
<path d="M135.581 177.458H89.6348V180.421H135.581V177.458Z" fill="#0F794D"/>
<path d="M195.108 199.285H89.6348V201.624H195.108V199.285Z" fill="#0F794D"/>
<path d="M195.108 204.898H89.6348V207.237H195.108V204.898Z" fill="#0F794D"/>
<path d="M195.108 210.512H89.6348V212.85H195.108V210.512Z" fill="#0F794D"/>
<path d="M14.7061 152.035H0V190.824H14.7061V152.035Z" fill="#0F794D"/>
<path d="M34.8365 130.252C34.8365 130.252 32.1023 148.803 25.2774 150.933C18.9439 152.909 14.707 152.817 14.707 152.817V189.353H49.6343C49.6343 189.353 51.1969 189.169 51.9324 186.596C52.6679 184.022 51.1053 181.54 51.1053 181.54C51.1053 181.54 53.4951 179.242 53.8624 176.485C54.2298 173.728 50.4614 171.429 50.4614 171.429C50.4614 171.429 52.8512 170.327 53.4026 167.661C53.9541 164.996 49.8176 162.422 49.8176 162.422C49.8176 162.422 52.0233 161.779 53.1269 159.205C54.2298 156.631 51.1045 152.311 50.5531 152.035C50.0016 151.759 41.637 152.035 41.637 152.035C41.637 152.035 45.5894 142.936 44.7623 138.433C43.9351 133.929 41.6828 130.803 34.8358 130.252H34.8365Z" fill="#FFD58B"/>
</svg>
