<svg width="25" height="25" viewBox="0 0 25 25" fill="none" xmlns="http://www.w3.org/2000/svg">
<path d="M17.4 3.125C17.6711 3.12486 17.9326 3.22481 18.1345 3.40567C18.3364 3.58652 18.4644 3.83556 18.494 4.105L18.5 4.225V7.125H19.5C20.2652 7.12496 21.0015 7.41733 21.5583 7.94228C22.115 8.46724 22.4501 9.18511 22.495 9.949L22.5 10.125V17.125C22.5002 17.6296 22.3096 18.1156 21.9665 18.4855C21.6234 18.8555 21.1532 19.0822 20.65 19.12L20.5 19.125H18.5V21.025C18.5001 21.2961 18.4002 21.5576 18.2193 21.7595C18.0385 21.9614 17.7894 22.0894 17.52 22.119L17.4 22.125H7.6C7.32894 22.1251 7.06738 22.0252 6.86548 21.8443C6.66358 21.6635 6.53557 21.4144 6.506 21.145L6.5 21.025V19.125H4.5C3.99542 19.1252 3.50943 18.9346 3.13945 18.5915C2.76947 18.2484 2.54284 17.7782 2.505 17.275L2.5 17.125V10.125C2.49996 9.35979 2.79233 8.62349 3.31728 8.06674C3.84224 7.50999 4.56011 7.17489 5.324 7.13L5.5 7.125H6.5V4.225C6.49986 3.95394 6.59981 3.69238 6.78067 3.49048C6.96152 3.28858 7.21056 3.16057 7.48 3.131L7.6 3.125H17.4ZM16.5 16.125H8.5V20.125H16.5V16.125ZM19.5 9.125H5.5C5.25507 9.12503 5.01866 9.21496 4.83563 9.37772C4.65259 9.54047 4.53566 9.76475 4.507 10.008L4.5 10.125V17.125H6.5V15.225C6.49986 14.9539 6.59981 14.6924 6.78067 14.4905C6.96152 14.2886 7.21056 14.1606 7.48 14.131L7.6 14.125H17.4C17.6711 14.1249 17.9326 14.2248 18.1345 14.4057C18.3364 14.5865 18.4644 14.8356 18.494 15.105L18.5 15.225V17.125H20.5V10.125C20.5 9.85978 20.3946 9.60543 20.2071 9.41789C20.0196 9.23036 19.7652 9.125 19.5 9.125ZM17.5 10.125C17.7549 10.1253 18 10.2229 18.1854 10.3978C18.3707 10.5728 18.4822 10.812 18.4972 11.0664C18.5121 11.3208 18.4293 11.5714 18.2657 11.7668C18.1021 11.9623 17.8701 12.0879 17.617 12.118L17.5 12.125H15.5C15.2451 12.1247 15 12.0271 14.8146 11.8522C14.6293 11.6772 14.5178 11.438 14.5028 11.1836C14.4879 10.9292 14.5707 10.6786 14.7343 10.4832C14.8979 10.2877 15.1299 10.1621 15.383 10.132L15.5 10.125H17.5ZM16.5 5.125H8.5V7.125H16.5V5.125Z" fill="#3D3D3D"/>
</svg>
